<svg width="216" height="229" viewBox="0 0 216 229" fill="none" xmlns="http://www.w3.org/2000/svg">
    <path d="M19.18 19.5C10.42 23.76 0 33.16 0 53.7C0 56.86 0.24 60.26 0.74 63.81L0.959999 65.4C2.22 74.83 6.09 103.57 20.53 133.77C35.03 164.13 48.49 183.48 70.2 205.18C70.36 205.33 86.58 221.41 94.61 225.42C100.35 228.29 106.09 228.42 107.54 228.39H107.57C109.05 228.42 114.77 228.29 120.51 225.42C128.54 221.41 144.78 205.33 144.94 205.18C166.65 183.48 180.1 164.13 194.6 133.77C209.02 103.58 212.9 74.83 214.17 65.38L214.38 63.76C218.21 36.48 206.48 24.63 195.96 19.5C169.41 6.56 139.66 0 107.57 0C75.48 0 45.72 6.56 19.18 19.5" fill="white"/>
    <path d="M146.47 99.1C89.32 108.05 61.66 123.16 48.2 137.4C37.88 148.31 41.46 156.68 44.23 161.5C53.08 175.34 62.84 187.21 75.51 199.88C79.56 203.94 92.43 215.93 97.99 218.7C102.57 221 107.37 220.88 107.56 220.88C107.8 220.9 112.57 220.99 117.17 218.7C122.73 215.93 135.59 203.93 139.63 199.88C160.68 178.83 173.75 160.04 187.86 130.53C194.06 117.55 198.25 104.82 201.07 93.88L201.11 93.72C188.61 93.99 170.79 95.3 146.48 99.1M41.73 47.06H40.6L37.22 62.95H38.36C40.2 62.95 41.44 62.26 42.41 61.1C43.45 59.89 44.11 57.85 44.71 55.01C45.32 52.19 45.52 50.13 45 48.92C44.51 47.77 43.58 47.06 41.72 47.06M192.69 26.23C164.64 12.57 134.86 7.46997 107.57 7.46997C80.28 7.46997 50.49 12.56 22.44 26.23C12.51 31.09 7.5 40.29 7.5 53.7C7.5 56.54 7.72 59.55 8.16 62.77L8.38 64.38C9.27 71.03 11.5 87.54 17.97 107.22C25.4 97.66 55.01 89.52 107.57 86.74C157.11 84.14 192.49 84.31 203.31 84.45C205.27 75.34 206.23 68.21 206.74 64.37L206.97 62.75C209.54 44.4 204.73 32.11 192.69 26.23M56.57 55.34C54.71 64.11 47.83 69.56 38.88 69.56H24.54L30.71 40.46H44.37C56.02 40.46 58.41 46.71 56.57 55.34ZM70.06 70.34C61.29 70.34 56.99 66.82 58.48 59.81L62.58 40.47H74.12L70.11 59.33C69.63 61.63 70.53 62.51 71.74 62.51C72.95 62.51 74.21 61.63 74.71 59.33L78.72 40.47H90.25L86.12 59.81C84.64 66.82 78.85 70.34 70.06 70.34M101.66 70.34C91.46 70.34 88.08 64.11 90.02 54.89C91.67 45.81 98.38 39.69 108.21 39.69C115.55 39.69 121.13 42.68 119.36 51.23H108.78C109.33 47.92 108.27 47.28 106.85 47.28C103.86 47.28 102.92 50.34 101.93 55.02C101 59.45 100.54 62.75 103.43 62.75C104.94 62.75 106.13 61.88 106.93 58.81H117.74C116.05 66.83 108.87 70.35 101.66 70.35M136.57 69.57L136.44 64.89H128.09L125.93 69.57H114.89L130.38 40.47H145.33L148.5 69.57H136.57ZM163.53 69.57H151.99L156.52 48.29H149.36L151 40.47H176.87L175.22 48.29H168.06L163.53 69.57ZM184.41 69.57H172.88L179.07 40.47H190.59L184.4 69.57H184.41ZM131.32 57.8H136.24L136.26 46.82H136.2L131.32 57.8Z" fill="#EA0029"/>
</svg>
